<?xml version="1.0" encoding="utf-8"?>
<!-- Generator: Adobe Illustrator 24.2.0, SVG Export Plug-In . SVG Version: 6.00 Build 0)  -->
<svg version="1.1" id="Layer_1" xmlns="http://www.w3.org/2000/svg" xmlns:xlink="http://www.w3.org/1999/xlink" x="0px" y="0px"
	 viewBox="0 0 2726 1092.2" style="enable-background:new 0 0 2726 1092.2;" xml:space="preserve">
<style type="text/css">
	.st0{clip-path:url(#SVGID_2_);fill:#282828;}
	.st1{clip-path:url(#SVGID_2_);}
	.st2{fill:#F9F8F8;}
	.st3{fill:#413A8E;}
	.st4{fill:#444696;}
	.st5{fill:#282828;}
	.st6{fill:#FFFFFF;}
	.st7{fill:#2E2766;}
	.st8{fill:#161617;}
</style>
<g>
	<defs>
		<path id="SVGID_1_" d="M2726,0v863.3c-36.1,19.9-72.3,39.8-108.4,59.7c-73.2,40.3-150,95.9-230.1,117.2
			c-131.4,35-277.2,34.8-401.4-25.6c-134-65.1-198.9-219-366.5-212.9c-68.9,2.5-77.8,35.4-193.9,45c-61,5-138,10.5-215.8-27.2
			c-75-36.4-59.4-68.8-125.5-96c-78.8-32.5-110.8,9.4-248.8-9.5c-69.6-9.5-70.8-18.7-133.2-26.5c-88.9-11.2-156.6,11.2-185.5,18.2
			C350.7,746.2,148.8,742.5,0,710.9V0H2726z"/>
	</defs>
	<clipPath id="SVGID_2_">
		<use xlink:href="#SVGID_1_"  style="overflow:visible;"/>
	</clipPath>
	<path class="st0" d="M3075.5-81.1c-5.6,187.3-9.6,374.5-15.4,561.7c-2.3,74.7-16.4,152.8-63.8,210.5c-34.5,42-83.3,69.2-130.8,95.3
		c-46.5,25.6-93,51.2-139.5,76.8c-36.1,19.9-72.3,39.8-108.4,59.7c-73.2,40.3-150,95.9-230.1,117.2c-131.4,35-277.2,34.8-401.4-25.6
		c-134-65.1-198.9-219-366.5-212.9c-68.9,2.5-77.8,35.4-193.9,45c-61,5-138,10.5-215.8-27.2c-75-36.4-59.4-68.8-125.5-96
		c-78.8-32.5-110.8,9.4-248.8-9.5c-69.6-9.5-70.8-18.7-133.2-26.5c-88.9-11.2-156.6,11.2-185.5,18.2
		C350.7,746.2,148.8,742.5,0,710.9c-46.3-9.8-87.4-22.4-120.8-37.2c-27.4-12.2-91.3-41.3-143.4-106c-21.9-27.2-34-51.3-39.4-61.7
		C-464.2,197.4-544.6,43.2-580.6-153.7c-42.1-230.4-33.1-506,43.6-655.5c34.1-66.5,81.3-125.4,136.4-175.8
		c205.5-188.1,499.6-262.8,768.3-300.9c343.8-48.9,696.3-38.6,1040.3,3.8c334.4,41.1,669.1,113.3,984.3,234.1
		c127.6,48.9,253.3,106.3,368.6,180.2c49.9,32,98,68.3,144.1,105.1c92.6,74,137.1,206.7,156.9,320.3
		C3082.6-323.5,3079.1-201.8,3075.5-81.1z"/>
	<g class="st1">
		<defs>
			<rect id="SVGID_3_" x="1714.6" y="331.1" width="872.7" height="500.2"/>
		</defs>
		<clipPath id="SVGID_4_">
			<use xlink:href="#SVGID_3_"  style="overflow:visible;"/>
		</clipPath>
		<g style="clip-path:url(#SVGID_4_);">
			
				<image style="overflow:visible;" width="940" height="554" xlink:href="C56A3DF4.jpg"  transform="matrix(0.9773 0 0 0.9773 1692.4407 319.3136)">
			</image>
		</g>
	</g>
	<g class="st1">
		
			<image style="overflow:visible;" width="1028" height="799" xlink:href="C56A3DF5.jpg"  transform="matrix(0.7197 0 0 0.7197 2072.436 557.7946)">
		</image>
	</g>
	<g class="st1">
		<g>
			<path class="st2" d="M238.3,233.5l-68.1-25.1v-21.3l68.1-25.1v20.2L178,203.5v-11.6l60.4,21.4V233.5z"/>
			<path class="st2" d="M256,246.1v-96.7h49.5c12.7,0,22.2,2.3,28.5,7c6.3,4.7,9.4,10.8,9.4,18.3c0,5-1.3,9.3-3.9,13.1
				s-6.3,6.7-11.1,8.8c-4.7,2.2-10.4,3.2-16.9,3.2l2.8-6.6c6.8,0,12.8,1,17.8,3.1c5.1,2.1,9,5.1,11.8,9c2.8,3.9,4.2,8.7,4.2,14.3
				c0,8.4-3.4,14.9-10.2,19.6c-6.8,4.7-16.6,7-29.6,7H256z M283.1,226.3H306c4.7,0,8.3-0.8,10.7-2.4c2.4-1.6,3.7-4.1,3.7-7.4
				s-1.2-5.8-3.7-7.4c-2.4-1.6-6-2.4-10.7-2.4h-24.9v-18.9h20.7c4.6,0,8.1-0.8,10.4-2.3c2.3-1.6,3.5-3.9,3.5-7c0-3.1-1.2-5.5-3.5-7
				c-2.3-1.5-5.8-2.3-10.4-2.3h-18.8V226.3z"/>
			<path class="st2" d="M384.6,247.3c-6,0-11.1-1-15.2-3c-4.1-2-7.3-4.8-9.5-8.3c-2.2-3.5-3.2-7.4-3.2-11.7c0-4.6,1.2-8.6,3.5-12
				c2.3-3.4,6-5.9,10.8-7.7c4.9-1.8,11.2-2.7,18.9-2.7h17.7v13.7h-14.1c-4.2,0-7.2,0.7-8.9,2.1c-1.7,1.4-2.6,3.2-2.6,5.5
				c0,2.3,0.9,4.1,2.6,5.5c1.7,1.4,4.1,2.1,7.2,2.1c2.9,0,5.5-0.7,7.8-2.1c2.3-1.4,4.1-3.6,5.2-6.6l3.6,9.7
				c-1.4,5.2-4.1,9.1-8.1,11.7C396.5,246,391.2,247.3,384.6,247.3z M406.8,246.1v-14l-1.8-3.5V203c0-4.1-1.3-7.3-3.8-9.6
				c-2.5-2.3-6.6-3.4-12.1-3.4c-3.6,0-7.2,0.6-10.9,1.7c-3.7,1.2-6.8,2.7-9.4,4.8l-8.8-17.8c4.2-2.8,9.3-4.9,15.3-6.4
				c5.9-1.5,11.9-2.3,17.8-2.3c12.2,0,21.6,2.8,28.3,8.4c6.7,5.6,10,14.3,10,26.2v41.6H406.8z"/>
			<path class="st2" d="M439.9,193.6V174h54.3v19.6H439.9z M481.2,247.3c-9.6,0-17-2.4-22.4-7.1c-5.3-4.7-8-11.9-8-21.5v-64.2h26.3
				v64c0,2.7,0.7,4.8,2.2,6.3c1.5,1.5,3.4,2.3,5.7,2.3c3.1,0,5.8-0.8,8-2.3l6.5,18.4c-2.2,1.5-4.9,2.6-8.2,3.2
				C488.1,247,484.7,247.3,481.2,247.3z"/>
			<path class="st2" d="M547.1,247.3c-8.2,0-15.5-1.7-21.8-5c-6.4-3.3-11.4-7.9-15-13.7c-3.6-5.8-5.5-12.5-5.5-20.1
				c0-7.6,1.8-14.2,5.5-20c3.6-5.8,8.6-10.3,15-13.6c6.4-3.3,13.6-4.9,21.8-4.9c8.2,0,15.5,1.6,21.9,4.9c6.4,3.3,11.4,7.8,15,13.6
				s5.4,12.5,5.4,20c0,7.6-1.8,14.3-5.4,20.1c-3.6,5.9-8.6,10.4-15,13.7C562.6,245.7,555.3,247.3,547.1,247.3z M547.1,226.5
				c3,0,5.7-0.7,8.1-2.1c2.3-1.4,4.2-3.4,5.6-6.1c1.4-2.7,2.1-6,2.1-9.7c0-3.8-0.7-7-2.1-9.6c-1.4-2.6-3.2-4.6-5.6-6
				c-2.3-1.4-5-2.1-8.1-2.1c-2.9,0-5.6,0.7-7.9,2.1c-2.3,1.4-4.2,3.4-5.7,6c-1.4,2.6-2.1,5.8-2.1,9.6c0,3.8,0.7,7,2.1,9.7
				c1.4,2.7,3.3,4.8,5.7,6.1C541.5,225.8,544.2,226.5,547.1,226.5z"/>
			<path class="st2" d="M639.1,247.3c-8.2,0-15.5-1.7-21.8-5c-6.4-3.3-11.4-7.9-15-13.7c-3.6-5.8-5.5-12.5-5.5-20.1
				c0-7.6,1.8-14.2,5.5-20c3.6-5.8,8.6-10.3,15-13.6c6.4-3.3,13.6-4.9,21.8-4.9c8.2,0,15.5,1.6,21.9,4.9c6.4,3.3,11.4,7.8,15,13.6
				s5.4,12.5,5.4,20c0,7.6-1.8,14.3-5.4,20.1c-3.6,5.9-8.6,10.4-15,13.7C654.6,245.7,647.3,247.3,639.1,247.3z M639.1,226.5
				c3,0,5.7-0.7,8.1-2.1c2.3-1.4,4.2-3.4,5.6-6.1c1.4-2.7,2.1-6,2.1-9.7c0-3.8-0.7-7-2.1-9.6c-1.4-2.6-3.2-4.6-5.6-6
				c-2.3-1.4-5-2.1-8.1-2.1c-2.9,0-5.6,0.7-7.9,2.1c-2.3,1.4-4.2,3.4-5.7,6c-1.4,2.6-2.1,5.8-2.1,9.6c0,3.8,0.7,7,2.1,9.7
				c1.4,2.7,3.3,4.8,5.7,6.1C633.6,225.8,636.2,226.5,639.1,226.5z"/>
			<path class="st2" d="M693.6,246.1V143.6h26.3v102.5H693.6z"/>
			<path class="st2" d="M160.3,411.9l42.7-96.7h26.9l42.8,96.7h-28.5l-33.4-83.3h10.8l-33.4,83.3H160.3z M183.6,393.1l7-20.2h47.3
				l7,20.2H183.6z"/>
			<path class="st2" d="M279.2,411.9V309.4h26.3v102.5H279.2z"/>
			<path class="st2" d="M323.7,411.9v-96.7h49.5c12.7,0,22.2,2.3,28.5,7c6.3,4.7,9.4,10.8,9.4,18.3c0,5-1.3,9.3-3.9,13.1
				s-6.3,6.7-11.1,8.8c-4.7,2.2-10.4,3.2-16.9,3.2l2.8-6.6c6.8,0,12.8,1,17.8,3.1c5.1,2.1,9,5.1,11.8,9c2.8,3.9,4.2,8.7,4.2,14.3
				c0,8.4-3.4,14.9-10.2,19.6c-6.8,4.7-16.6,7-29.6,7H323.7z M350.8,392.1h22.9c4.7,0,8.3-0.8,10.7-2.4c2.4-1.6,3.7-4.1,3.7-7.4
				s-1.2-5.8-3.7-7.4c-2.4-1.6-6-2.4-10.7-2.4h-24.9v-18.9h20.7c4.6,0,8.1-0.8,10.4-2.3c2.3-1.6,3.5-3.9,3.5-7c0-3.1-1.2-5.5-3.5-7
				c-2.3-1.5-5.8-2.3-10.4-2.3h-18.8V392.1z"/>
			<path class="st2" d="M466.3,413.1c-8.2,0-15.5-1.7-21.8-5c-6.4-3.3-11.4-7.9-15-13.7c-3.6-5.8-5.5-12.5-5.5-20.1
				c0-7.6,1.8-14.2,5.5-20c3.6-5.8,8.6-10.3,15-13.6c6.4-3.3,13.6-4.9,21.8-4.9c8.2,0,15.5,1.6,21.9,4.9c6.4,3.3,11.4,7.8,15,13.6
				s5.4,12.5,5.4,20c0,7.6-1.8,14.3-5.4,20.1c-3.6,5.9-8.6,10.4-15,13.7C481.8,411.5,474.5,413.1,466.3,413.1z M466.3,392.3
				c3,0,5.7-0.7,8.1-2.1c2.3-1.4,4.2-3.4,5.6-6.1c1.4-2.7,2.1-6,2.1-9.7c0-3.8-0.7-7-2.1-9.6c-1.4-2.6-3.2-4.6-5.6-6
				c-2.3-1.4-5-2.1-8.1-2.1c-2.9,0-5.6,0.7-7.9,2.1c-2.3,1.4-4.2,3.4-5.7,6c-1.4,2.6-2.1,5.8-2.1,9.6c0,3.8,0.7,7,2.1,9.7
				c1.4,2.7,3.3,4.8,5.7,6.1C460.7,391.6,463.4,392.3,466.3,392.3z"/>
			<path class="st2" d="M569.5,335.8c5.8,0,11.1,1.2,15.8,3.5c4.7,2.3,8.4,6,11.1,10.8c2.7,4.9,4.1,11.2,4.1,18.9v42.8h-26.3v-38.5
				c0-5.3-1.1-9.2-3.2-11.7c-2.2-2.4-5.2-3.7-9-3.7c-2.8,0-5.3,0.6-7.6,1.9c-2.3,1.2-4.1,3.2-5.4,5.7c-1.3,2.6-1.9,5.9-1.9,10.1
				v36.2h-26.3V337h25v21.3l-4.8-6.2c2.9-5.4,6.8-9.5,11.7-12.2C557.6,337.1,563.2,335.8,569.5,335.8z"/>
			<path class="st2" d="M665.7,335.8c5.8,0,11.1,1.2,15.8,3.5c4.7,2.3,8.4,6,11.1,10.8c2.7,4.9,4.1,11.2,4.1,18.9v42.8h-26.3v-38.5
				c0-5.3-1.1-9.2-3.2-11.7c-2.2-2.4-5.2-3.7-9-3.7c-2.8,0-5.3,0.6-7.6,1.9c-2.3,1.2-4.1,3.2-5.4,5.7c-1.3,2.6-1.9,5.9-1.9,10.1
				v36.2h-26.3V337h25v21.3l-4.8-6.2c2.9-5.4,6.8-9.5,11.7-12.2C653.8,337.1,659.4,335.8,665.7,335.8z"/>
			<path class="st2" d="M726.2,328.7c-4.8,0-8.7-1.3-11.6-4c-2.9-2.7-4.4-6-4.4-9.9c0-4,1.5-7.3,4.4-9.9c2.9-2.7,6.8-4,11.6-4
				c4.8,0,8.7,1.3,11.6,3.8c2.9,2.5,4.4,5.8,4.4,9.7c0,4.1-1.5,7.6-4.4,10.3C735,327.3,731.1,328.7,726.2,328.7z M713.1,411.9V337
				h26.3v74.9H713.1z"/>
			<path class="st2" d="M742.8,425.7l45.6-130.2h23.4l-45.6,130.2H742.8z"/>
			<path class="st2" d="M813.2,399.3v-20.2l60.5-21.4v11.6l-60.5-21.4v-20.2l68.1,25.1v21.3L813.2,399.3z"/>
			<path class="st3" d="M164.2,487.1v-5.4h45.5v5.4H164.2z M166.5,467.4V462H212v5.4H166.5z M172.7,500.4l6.4-51.6h5.2l-6.4,51.6
				H172.7z M191.9,500.4l6.3-51.6h5.2l-6.3,51.6H191.9z"/>
			<path class="st3" d="M221.8,500.4v-51.6h21.7c5.5,0,10.4,1.1,14.6,3.2c4.2,2.2,7.5,5.2,9.8,9.1c2.3,3.9,3.5,8.4,3.5,13.5
				s-1.2,9.6-3.5,13.5c-2.3,3.9-5.6,6.9-9.8,9.1c-4.2,2.2-9.1,3.2-14.6,3.2H221.8z M229.1,493.9h13.9c4.3,0,8-0.8,11.1-2.4
				c3.1-1.6,5.5-3.9,7.3-6.8c1.7-2.9,2.6-6.3,2.6-10.1c0-3.9-0.9-7.3-2.6-10.2c-1.7-2.9-4.1-5.2-7.3-6.8c-3.1-1.6-6.8-2.4-11.1-2.4
				h-13.9V493.9z"/>
			<path class="st3" d="M299,500.8c-4.2,0-7.9-0.9-11-2.6c-3.2-1.7-5.6-4.1-7.4-7.1c-1.7-3-2.6-6.4-2.6-10.3c0-3.9,0.8-7.3,2.5-10.3
				c1.7-3,4-5.3,7-7c3-1.7,6.3-2.5,10.1-2.5c3.8,0,7.1,0.8,10,2.5c2.9,1.7,5.2,4,6.8,7c1.6,3,2.5,6.5,2.5,10.6c0,0.3,0,0.6,0,1
				c0,0.4-0.1,0.8-0.1,1.1h-33.2v-5.1h29.6l-2.9,1.8c0-2.5-0.5-4.7-1.5-6.7c-1.1-2-2.6-3.5-4.5-4.6c-1.9-1.1-4.1-1.7-6.6-1.7
				c-2.5,0-4.6,0.6-6.6,1.7c-1.9,1.1-3.4,2.7-4.5,4.6c-1.1,2-1.6,4.3-1.6,6.8v1.2c0,2.6,0.6,4.9,1.8,7c1.2,2,2.9,3.6,5.1,4.8
				c2.2,1.1,4.6,1.7,7.4,1.7c2.3,0,4.4-0.4,6.3-1.2c1.9-0.8,3.6-2,5-3.5l3.9,4.6c-1.8,2.1-4,3.6-6.6,4.7
				C305.2,500.3,302.3,500.8,299,500.8z"/>
			<path class="st3" d="M337,500.4l-17.1-39.1h7.4l15.2,35.4h-3.5l15.5-35.4h6.9l-17.1,39.1H337z"/>
			<path class="st3" d="M385.4,500.8c-4.2,0-7.9-0.9-11-2.6c-3.2-1.7-5.6-4.1-7.4-7.1c-1.7-3-2.6-6.4-2.6-10.3
				c0-3.9,0.8-7.3,2.5-10.3c1.7-3,4-5.3,7-7c3-1.7,6.3-2.5,10.1-2.5c3.8,0,7.1,0.8,10,2.5c2.9,1.7,5.2,4,6.8,7
				c1.6,3,2.5,6.5,2.5,10.6c0,0.3,0,0.6,0,1c0,0.4-0.1,0.8-0.1,1.1h-33.2v-5.1h29.6l-2.9,1.8c0-2.5-0.5-4.7-1.5-6.7
				c-1.1-2-2.6-3.5-4.5-4.6c-1.9-1.1-4.1-1.7-6.6-1.7c-2.5,0-4.6,0.6-6.6,1.7c-1.9,1.1-3.4,2.7-4.5,4.6c-1.1,2-1.6,4.3-1.6,6.8v1.2
				c0,2.6,0.6,4.9,1.8,7c1.2,2,2.9,3.6,5.1,4.8c2.2,1.1,4.6,1.7,7.4,1.7c2.3,0,4.4-0.4,6.3-1.2c1.9-0.8,3.6-2,5-3.5l3.9,4.6
				c-1.8,2.1-4,3.6-6.6,4.7C391.5,500.3,388.6,500.8,385.4,500.8z"/>
			<path class="st3" d="M413.1,500.4v-54.7h7.1v54.7H413.1z"/>
			<path class="st3" d="M450.4,500.8c-3.9,0-7.4-0.9-10.5-2.6c-3-1.7-5.5-4.1-7.2-7.1c-1.8-3-2.7-6.5-2.7-10.3
				c0-3.9,0.9-7.3,2.7-10.3c1.8-3,4.2-5.3,7.2-7c3-1.7,6.5-2.5,10.5-2.5c3.9,0,7.4,0.8,10.4,2.5c3.1,1.7,5.5,4,7.2,7
				c1.7,3,2.6,6.4,2.6,10.4c0,3.9-0.9,7.3-2.6,10.3c-1.7,3-4.2,5.4-7.2,7.1C457.7,499.9,454.3,500.8,450.4,500.8z M450.4,494.6
				c2.5,0,4.8-0.6,6.7-1.7c2-1.1,3.6-2.7,4.7-4.8c1.1-2.1,1.7-4.5,1.7-7.3c0-2.8-0.6-5.2-1.7-7.3c-1.1-2-2.7-3.6-4.7-4.8
				c-2-1.1-4.2-1.7-6.7-1.7c-2.5,0-4.7,0.6-6.7,1.7c-2,1.1-3.5,2.7-4.7,4.8c-1.2,2-1.8,4.5-1.8,7.3c0,2.8,0.6,5.2,1.8,7.3
				c1.2,2.1,2.8,3.7,4.7,4.8C445.6,494,447.9,494.6,450.4,494.6z"/>
			<path class="st3" d="M480.5,514.7v-53.4h6.8v10.5l-0.4,9.1l0.7,9.1v24.7H480.5z M501.2,500.8c-3.2,0-6.2-0.7-8.9-2.2
				c-2.7-1.5-4.8-3.7-6.4-6.7c-1.6-2.9-2.4-6.6-2.4-11.1c0-4.4,0.8-8.1,2.3-11.1c1.5-2.9,3.7-5.2,6.3-6.6c2.7-1.5,5.7-2.2,9-2.2
				c3.8,0,7.2,0.8,10.2,2.5c2.9,1.7,5.3,4,7,7c1.7,3,2.6,6.5,2.6,10.4c0,4-0.9,7.5-2.6,10.5c-1.7,3-4.1,5.3-7,7
				C508.4,500,505,500.8,501.2,500.8z M500.6,494.6c2.5,0,4.8-0.6,6.7-1.7c2-1.1,3.6-2.7,4.7-4.8c1.2-2.1,1.7-4.5,1.7-7.3
				c0-2.8-0.6-5.2-1.7-7.3c-1.2-2-2.7-3.6-4.7-4.8c-2-1.1-4.2-1.7-6.7-1.7c-2.5,0-4.7,0.6-6.7,1.7c-2,1.1-3.6,2.7-4.7,4.8
				c-1.2,2-1.7,4.5-1.7,7.3c0,2.8,0.6,5.2,1.7,7.3c1.2,2.1,2.7,3.7,4.7,4.8C495.9,494,498.1,494.6,500.6,494.6z"/>
			<path class="st3" d="M579.6,460.9c3.1,0,5.9,0.6,8.3,1.8c2.4,1.2,4.3,3.1,5.6,5.6c1.4,2.5,2,5.7,2,9.5v22.5h-7.1v-21.7
				c0-3.8-0.9-6.6-2.7-8.6c-1.8-1.9-4.3-2.9-7.4-2.9c-2.4,0-4.4,0.5-6.2,1.5c-1.8,1-3.1,2.4-4.1,4.3c-1,1.9-1.4,4.3-1.4,7.2v20.1
				h-7.1v-21.7c0-3.8-0.9-6.6-2.6-8.6c-1.7-1.9-4.2-2.9-7.5-2.9c-2.3,0-4.3,0.5-6.1,1.5c-1.8,1-3.1,2.4-4.1,4.3
				c-1,1.9-1.5,4.3-1.5,7.2v20.1h-7.1v-39.1h6.8v10.4l-1.1-2.7c1.2-2.6,3.1-4.5,5.7-6c2.6-1.4,5.5-2.1,8.9-2.1c3.7,0,7,0.9,9.7,2.8
				c2.7,1.8,4.5,4.6,5.3,8.4l-2.9-1.2c1.2-3,3.2-5.4,6.2-7.2C572.2,461.8,575.7,460.9,579.6,460.9z"/>
			<path class="st3" d="M626.1,500.8c-4.2,0-7.9-0.9-11-2.6c-3.2-1.7-5.6-4.1-7.4-7.1c-1.7-3-2.6-6.4-2.6-10.3
				c0-3.9,0.8-7.3,2.5-10.3c1.7-3,4-5.3,7-7c3-1.7,6.3-2.5,10.1-2.5c3.8,0,7.1,0.8,10,2.5c2.9,1.7,5.2,4,6.8,7
				c1.6,3,2.5,6.5,2.5,10.6c0,0.3,0,0.6,0,1c0,0.4-0.1,0.8-0.1,1.1h-33.2v-5.1h29.6l-2.9,1.8c0-2.5-0.5-4.7-1.5-6.7
				c-1.1-2-2.6-3.5-4.5-4.6c-1.9-1.1-4.1-1.7-6.6-1.7c-2.5,0-4.6,0.6-6.6,1.7c-1.9,1.1-3.4,2.7-4.5,4.6c-1.1,2-1.6,4.3-1.6,6.8v1.2
				c0,2.6,0.6,4.9,1.8,7c1.2,2,2.9,3.6,5.1,4.8c2.2,1.1,4.6,1.7,7.4,1.7c2.3,0,4.4-0.4,6.3-1.2c1.9-0.8,3.6-2,5-3.5l3.9,4.6
				c-1.8,2.1-4,3.6-6.6,4.7C632.2,500.3,629.3,500.8,626.1,500.8z"/>
			<path class="st3" d="M674.6,460.9c3.2,0,6,0.6,8.4,1.8c2.4,1.2,4.3,3.1,5.7,5.6c1.4,2.5,2.1,5.7,2.1,9.5v22.5h-7.1v-21.7
				c0-3.8-0.9-6.6-2.8-8.6c-1.8-1.9-4.4-2.9-7.8-2.9c-2.5,0-4.7,0.5-6.6,1.5c-1.9,1-3.3,2.4-4.3,4.3c-1,1.9-1.5,4.3-1.5,7.2v20.1
				h-7.1v-39.1h6.8v10.5l-1.1-2.8c1.3-2.6,3.2-4.5,5.9-6C668,461.6,671.1,460.9,674.6,460.9z"/>
			<path class="st3" d="M698.4,467.1v-5.8h24.9v5.8H698.4z M717.4,500.8c-3.9,0-7-1.1-9.1-3.2c-2.2-2.1-3.2-5.1-3.2-9.1v-35.8h7.1
				v35.5c0,2.1,0.5,3.7,1.6,4.9c1.1,1.1,2.6,1.7,4.5,1.7c2.2,0,4.1-0.6,5.5-1.8l2.2,5.1c-1.1,0.9-2.4,1.6-3.9,2.1
				C720.6,500.6,719,500.8,717.4,500.8z"/>
			<path class="st4" d="M769.5,487.1v-5.4h45.5v5.4H769.5z M771.8,467.4V462h45.5v5.4H771.8z M778,500.4l6.4-51.6h5.2l-6.4,51.6H778
				z M797.2,500.4l6.3-51.6h5.2l-6.3,51.6H797.2z"/>
			<path class="st4" d="M827,500.4v-51.6h21.7c5.5,0,10.4,1.1,14.6,3.2c4.2,2.2,7.5,5.2,9.8,9.1c2.3,3.9,3.5,8.4,3.5,13.5
				s-1.2,9.6-3.5,13.5c-2.3,3.9-5.6,6.9-9.8,9.1c-4.2,2.2-9.1,3.2-14.6,3.2H827z M834.4,493.9h13.9c4.3,0,8-0.8,11.1-2.4
				c3.1-1.6,5.5-3.9,7.3-6.8c1.7-2.9,2.6-6.3,2.6-10.1c0-3.9-0.9-7.3-2.6-10.2c-1.7-2.9-4.1-5.2-7.3-6.8c-3.1-1.6-6.8-2.4-11.1-2.4
				h-13.9V493.9z"/>
			<path class="st4" d="M904.3,500.8c-4.2,0-7.9-0.9-11-2.6c-3.2-1.7-5.6-4.1-7.4-7.1c-1.7-3-2.6-6.4-2.6-10.3
				c0-3.9,0.8-7.3,2.5-10.3c1.7-3,4-5.3,7-7c3-1.7,6.3-2.5,10.1-2.5c3.8,0,7.1,0.8,10,2.5c2.9,1.7,5.2,4,6.8,7
				c1.6,3,2.5,6.5,2.5,10.6c0,0.3,0,0.6,0,1c0,0.4-0.1,0.8-0.1,1.1h-33.2v-5.1h29.6l-2.9,1.8c0-2.5-0.5-4.7-1.5-6.7
				c-1.1-2-2.6-3.5-4.5-4.6c-1.9-1.1-4.1-1.7-6.6-1.7c-2.5,0-4.6,0.6-6.6,1.7c-1.9,1.1-3.4,2.7-4.5,4.6c-1.1,2-1.6,4.3-1.6,6.8v1.2
				c0,2.6,0.6,4.9,1.8,7c1.2,2,2.9,3.6,5.1,4.8c2.2,1.1,4.6,1.7,7.4,1.7c2.3,0,4.4-0.4,6.3-1.2c1.9-0.8,3.6-2,5-3.5l3.9,4.6
				c-1.8,2.1-4,3.6-6.6,4.7C910.5,500.3,907.5,500.8,904.3,500.8z"/>
			<path class="st4" d="M943.2,500.8c-3.2,0-6.3-0.4-9.3-1.3c-2.9-0.9-5.2-2-6.9-3.2l2.9-5.6c1.7,1.1,3.7,2.1,6.2,2.9
				c2.5,0.8,5,1.2,7.5,1.2c3.3,0,5.7-0.5,7.1-1.4c1.4-0.9,2.2-2.2,2.2-3.9c0-1.2-0.4-2.2-1.3-2.9s-2.1-1.2-3.5-1.5
				c-1.5-0.3-3.1-0.7-4.8-0.9c-1.8-0.3-3.5-0.6-5.3-1c-1.8-0.4-3.4-1-4.9-1.8c-1.5-0.8-2.7-1.8-3.5-3.2s-1.3-3.2-1.3-5.4
				c0-2.4,0.7-4.4,2-6.2c1.3-1.8,3.2-3.1,5.6-4.1c2.4-1,5.3-1.4,8.7-1.4c2.6,0,5.1,0.3,7.8,0.9c2.6,0.6,4.8,1.5,6.5,2.6l-3,5.6
				c-1.8-1.2-3.6-2-5.5-2.4c-1.9-0.4-3.8-0.7-5.8-0.7c-3.1,0-5.4,0.5-6.9,1.5c-1.5,1-2.3,2.3-2.3,3.9c0,1.3,0.5,2.3,1.4,3.1
				c0.9,0.7,2.1,1.3,3.5,1.7c1.4,0.4,3.1,0.7,4.8,1s3.5,0.6,5.3,1c1.8,0.4,3.4,1,4.8,1.7c1.4,0.7,2.6,1.8,3.5,3.1
				c0.9,1.3,1.4,3.1,1.4,5.3c0,2.4-0.7,4.4-2.1,6.1c-1.4,1.7-3.3,3.1-5.8,4C949.7,500.3,946.7,500.8,943.2,500.8z"/>
			<path class="st4" d="M972.5,453.8c-1.4,0-2.5-0.4-3.4-1.3c-0.9-0.9-1.4-2-1.4-3.2c0-1.3,0.5-2.4,1.4-3.3c0.9-0.9,2.1-1.3,3.4-1.3
				c1.4,0,2.5,0.4,3.4,1.3c0.9,0.9,1.4,1.9,1.4,3.2c0,1.3-0.4,2.4-1.3,3.4C975.1,453.3,973.9,453.8,972.5,453.8z M968.9,500.4v-39.1
				h7.1v39.1H968.9z"/>
			<path class="st4" d="M1005.7,498.7c-3.8,0-7.2-0.8-10.1-2.4c-3-1.6-5.3-3.8-7.1-6.7c-1.7-2.8-2.6-6.1-2.6-9.9
				c0-3.8,0.9-7.1,2.6-9.9c1.7-2.8,4.1-5,7.1-6.6c3-1.6,6.4-2.4,10.1-2.4c3.3,0,6.4,0.7,9.1,2c2.8,1.4,5,3.4,6.6,6.2
				c1.6,2.8,2.5,6.3,2.5,10.6c0,4.2-0.8,7.7-2.5,10.5c-1.6,2.8-3.8,4.9-6.6,6.3C1012.1,498,1009.1,498.7,1005.7,498.7z
				 M1006.6,515.1c-3.6,0-7.1-0.5-10.4-1.5c-3.4-1-6.1-2.4-8.2-4.3l3.4-5.5c1.8,1.6,4.1,2.8,6.7,3.7c2.7,0.9,5.4,1.4,8.3,1.4
				c4.6,0,8-1.1,10.2-3.2c2.2-2.2,3.2-5.5,3.2-9.9v-8.3l0.7-7.7l-0.4-7.8v-10.7h6.7V495c0,6.9-1.7,11.9-5.2,15.2
				C1018.3,513.5,1013.3,515.1,1006.6,515.1z M1006.5,492.5c2.6,0,4.9-0.5,6.9-1.6c2-1.1,3.6-2.6,4.8-4.5c1.2-1.9,1.7-4.1,1.7-6.6
				c0-2.5-0.6-4.7-1.7-6.6c-1.2-1.9-2.7-3.4-4.8-4.5c-2-1.1-4.3-1.6-6.9-1.6c-2.6,0-4.9,0.5-7,1.6c-2,1.1-3.6,2.5-4.8,4.5
				c-1.2,1.9-1.7,4.1-1.7,6.6c0,2.5,0.6,4.7,1.7,6.6c1.2,1.9,2.8,3.4,4.8,4.5C1001.6,492,1003.9,492.5,1006.5,492.5z"/>
			<path class="st4" d="M1061.2,460.9c3.2,0,6,0.6,8.4,1.8c2.4,1.2,4.3,3.1,5.7,5.6c1.4,2.5,2.1,5.7,2.1,9.5v22.5h-7.1v-21.7
				c0-3.8-0.9-6.6-2.8-8.6c-1.8-1.9-4.4-2.9-7.8-2.9c-2.5,0-4.7,0.5-6.6,1.5c-1.9,1-3.3,2.4-4.3,4.3c-1,1.9-1.5,4.3-1.5,7.2v20.1
				h-7.1v-39.1h6.8v10.5l-1.1-2.8c1.3-2.6,3.2-4.5,5.9-6C1054.6,461.6,1057.7,460.9,1061.2,460.9z"/>
		</g>
	</g>
	<g class="st1">
		<g>
			<g>
				<polygon class="st5" points="1702,286.3 1683.7,289.2 1680.8,270.9 1662.5,273.8 1655.2,227.6 1673.5,224.7 1670.6,206.4 
					1689,203.5 1686.1,185.2 1850,159.3 1852.9,177.6 1871.2,174.7 1874.1,193 1892.5,190.1 1899.8,236.3 1881.4,239.2 
					1884.3,257.5 1866,260.4 1868.9,278.7 1704.9,304.6 				"/>
				<path class="st6" d="M1849.2,160.5l2.9,18.3l18.4-2.9l2.9,18.3l18.3-2.9l7,44.2l-18.3,2.9l2.9,18.3l-18.4,2.9l2.9,18.3
					l-161.9,25.6l-2.9-18.3l-18.3,2.9l-2.9-18.3l-18.4,2.9l-7-44.2l18.4-2.9l-2.9-18.3l18.3-2.9l-2.9-18.3L1849.2,160.5
					 M1850.8,158.2l-2,0.3l-161.9,25.6l-2,0.3l0.3,2l2.6,16.3l-16.4,2.6l-2,0.3l0.3,2l2.6,16.3l-16.4,2.6l-2,0.3l0.3,2l7,44.2l0.3,2
					l2-0.3l16.4-2.6l2.6,16.3l0.3,2l2-0.3l16.4-2.6l2.6,16.3l0.3,2l2-0.3l161.9-25.6l2-0.3l-0.3-2l-2.6-16.3l16.4-2.6l2-0.3l-0.3-2
					l-2.6-16.3l16.4-2.6l2-0.3l-0.3-2l-7-44.2l-0.3-2l-2,0.3l-16.4,2.6l-2.6-16.3l-0.3-2l-2,0.3l-16.4,2.6l-2.6-16.3L1850.8,158.2
					L1850.8,158.2z"/>
			</g>
			<g>
				<g>
					
						<rect x="1863.7" y="207.6" transform="matrix(0.9877 -0.1561 0.1561 0.9877 -10.8879 295.0583)" class="st3" width="18.6" height="18.5"/>
					
						<rect x="1842.5" y="192.2" transform="matrix(0.9877 -0.1561 0.1561 0.9877 -8.7427 291.5527)" class="st3" width="18.6" height="18.5"/>
					
						<rect x="1848.3" y="228.8" transform="matrix(0.9877 -0.1561 0.1561 0.9877 -14.3886 292.9053)" class="st3" width="18.6" height="18.5"/>
					
						<rect x="1821.3" y="176.8" transform="matrix(0.9877 -0.1561 0.1561 0.9877 -6.5975 288.0472)" class="st3" width="18.6" height="18.5"/>
					
						<rect x="1832.8" y="250" transform="matrix(0.9877 -0.1561 0.1561 0.9877 -17.8893 290.7523)" class="st3" width="18.6" height="18.5"/>
				</g>
				<g>
					
						<rect x="1672.6" y="237.8" transform="matrix(0.9877 -0.1561 0.1561 0.9877 -17.9468 265.5939)" class="st3" width="18.6" height="18.5"/>
					
						<rect x="1688.1" y="216.6" transform="matrix(0.9877 -0.1561 0.1561 0.9877 -14.446 267.7469)" class="st3" width="18.6" height="18.5"/>
					
						<rect x="1693.9" y="253.2" transform="matrix(0.9877 -0.1561 0.1561 0.9877 -20.092 269.0994)" class="st3" width="18.6" height="18.5"/>
					
						<rect x="1703.5" y="195.4" transform="matrix(0.9877 -0.1561 0.1561 0.9877 -10.9453 269.8999)" class="st3" width="18.6" height="18.5"/>
					
						<rect x="1715.1" y="268.6" transform="matrix(0.9877 -0.1561 0.1561 0.9877 -22.2371 272.605)" class="st3" width="18.6" height="18.5"/>
				</g>
				<g>
					
						<rect x="1734.8" y="190.4" transform="matrix(0.9877 -0.1561 0.1561 0.9877 -9.79 274.7225)" class="st7" width="18.6" height="18.5"/>
					
						<rect x="1756.1" y="205.8" transform="matrix(0.9877 -0.1561 0.1561 0.9877 -11.9351 278.228)" class="st7" width="18.6" height="18.5"/>
					<g>
						
							<rect x="1777.4" y="221.2" transform="matrix(0.9877 -0.1561 0.1561 0.9877 -14.076 281.7626)" class="st7" width="18.6" height="18.5"/>
						
							<rect x="1780.3" y="239.5" transform="matrix(0.9877 -0.1561 0.1561 0.9877 -16.8994 282.4252)" class="st7" width="18.6" height="18.5"/>
					</g>
					
						<rect x="1801.5" y="254.9" transform="matrix(0.9877 -0.1561 0.1561 0.9877 -19.0446 285.9319)" class="st7" width="18.6" height="18.5"/>
				</g>
			</g>
		</g>
		<g>
			<polygon class="st6" points="1920.7,918.4 1867.7,958.7 1898.6,999.3 1951.6,959 1972,985.8 2012.7,954.9 2005.9,946 
				2023.7,932.4 2010.1,914.6 2027.9,901 1997,860.3 1979.2,873.9 1965.6,856 1947.8,869.5 1941,860.6 1900.3,891.5 			"/>
			
				<rect x="1980.9" y="884.9" transform="matrix(0.796 -0.6052 0.6052 0.796 -136.0681 1388.4915)" class="st8" width="22.4" height="22.4"/>
			<polygon class="st8" points="1938.2,880.7 1920.4,894.3 1934,912.1 1934,912.1 1940.8,921.1 1923.5,934.2 1905.7,947.8 
				1887.8,961.4 1901.3,979.2 1919.2,965.6 1919.2,965.6 1937.1,952.1 1937.1,952.1 1954.4,938.9 1961.2,947.9 1961.2,947.9 
				1974.7,965.7 1992.6,952.2 1985.8,943.2 1979,934.3 1972.2,925.4 1972.2,925.4 1972.2,925.4 1972.2,925.4 1972.2,925.4 
				1985.8,943.2 2003.6,929.7 1990,911.8 1976.4,894 1962.9,876.1 1945,889.7 1958.6,907.5 1958.6,907.5 1958.6,907.5 1958.6,907.5 
				1958.6,907.5 1951.8,898.6 			"/>
		</g>
		<g>
			<g>
				<g>
					<polygon class="st5" points="2436.3,258.6 2442.7,228.6 2451.2,230.4 2453.8,218.1 2436.9,214.5 2446.9,167.7 2455.3,169.5 
						2457.1,161.1 2465.6,162.9 2474.6,120.6 2483.1,122.4 2484.9,114 2633.2,145.6 2631.4,154.1 2639.8,155.9 2634.4,181.2 
						2659.8,186.6 2653.4,216.6 2644.9,214.8 2643.1,223.2 2634.7,221.4 2632.9,229.9 2624.4,228.1 2616.4,265.7 2624.9,267.5 
						2618.5,297.4 					"/>
					<path class="st6" d="M2485.6,115.2l146.4,31.2l-1.8,8.4l8.5,1.8l-5.4,25.3l25.4,5.4l-6,28l-8.5-1.8l-1.8,8.4l-8.5-1.8l-1.8,8.4
						l-8.5-1.8l-8.4,39.5l8.4,1.8l-6,28l-180.2-38.4l6-28l8.4,1.8l3-14.2l-16.9-3.6l9.6-44.9l8.5,1.8l1.8-8.4l8.4,1.8l9-42.2
						l8.5,1.8L2485.6,115.2 M2484.1,112.8l-0.4,2l-1.4,6.5l-6.5-1.4l-2-0.4l-0.4,2l-8.6,40.3l-6.5-1.4l-2-0.4l-0.4,2l-1.4,6.5
						l-6.5-1.4l-2-0.4l-0.4,2l-9.6,44.9l-0.4,2l2,0.4l14.9,3.2l-2.2,10.3l-6.5-1.4l-2-0.4l-0.4,2l-6,28l-0.4,2l2,0.4l180.2,38.4
						l2,0.4l0.4-2l6-28l0.4-2l-2-0.4l-6.5-1.4l7.6-35.6l6.5,1.4l2,0.4l0.4-2l1.4-6.5l6.5,1.4l2,0.4l0.4-2l1.4-6.5l6.5,1.4l2,0.4
						l0.4-2l6-28l0.4-2l-2-0.4l-23.4-5l5-23.4l0.4-2l-2-0.4l-6.5-1.4l1.4-6.5l0.4-2l-2-0.4L2486,113.2L2484.1,112.8L2484.1,112.8z"
						/>
				</g>
			</g>
			<g>
				
					<rect x="2551.5" y="80" transform="matrix(0.2086 -0.978 0.978 0.2086 1881.1252 2614.1968)" class="st6" width="8.6" height="129.7"/>
				
					<rect x="2464.6" y="174.9" transform="matrix(0.2086 -0.978 0.978 0.2086 1778.6779 2556.47)" class="st6" width="8.6" height="8.6"/>
				
					<rect x="2443.9" y="190" transform="matrix(0.2086 -0.978 0.978 0.2086 1754.3855 2556.6216)" class="st6" width="25.9" height="8.6"/>
				<g>
					
						<rect x="2637.3" y="194.1" transform="matrix(0.2086 -0.978 0.978 0.2086 1896.5925 2740.5405)" class="st6" width="8.6" height="8.6"/>
					
						<rect x="2627" y="200.7" transform="matrix(0.2086 -0.978 0.978 0.2086 1881.9781 2735.7666)" class="st6" width="8.6" height="8.6"/>
					
						<rect x="2616.8" y="207.4" transform="matrix(0.2086 -0.978 0.978 0.2086 1867.369 2730.9897)" class="st6" width="8.6" height="8.6"/>
				</g>
				<g>
					
						<rect x="2556" y="182.1" transform="matrix(0.2086 -0.978 0.978 0.2086 1847.4053 2655.738)" class="st6" width="17.3" height="8.6"/>
					
						<rect x="2522.2" y="174.9" transform="matrix(0.2086 -0.978 0.978 0.2086 1827.6946 2616.9558)" class="st6" width="17.3" height="8.6"/>
					
						<rect x="2555.8" y="203.2" transform="matrix(0.2086 -0.978 0.978 0.2086 1823.2008 2668.0398)" class="st6" width="8.6" height="8.6"/>
					
						<rect x="2522" y="196" transform="matrix(0.2086 -0.978 0.978 0.2086 1803.4901 2629.2576)" class="st6" width="8.6" height="8.6"/>
					
						<rect x="2537.1" y="199.4" transform="matrix(0.2086 -0.978 0.978 0.2086 1803.6635 2653.5662)" class="st6" width="8.6" height="25.9"/>
				</g>
				
					<rect x="2565.2" y="205.6" transform="matrix(0.2086 -0.978 0.978 0.2086 1862.4515 2721.2874)" class="st6" width="95" height="8.6"/>
				
					<rect x="2429.9" y="176.7" transform="matrix(0.2086 -0.978 0.978 0.2086 1783.6089 2566.1587)" class="st6" width="95" height="8.6"/>
				
					<rect x="2529.9" y="181.3" transform="matrix(0.2086 -0.978 0.978 0.2086 1764.9298 2673.252)" class="st6" width="8.6" height="129.7"/>
				
					<rect x="2526.3" y="180.9" transform="matrix(0.2086 -0.978 0.978 0.2086 1745.5657 2683.1003)" class="st6" width="8.6" height="164.2"/>
				
					<rect x="2565.5" y="199.3" transform="matrix(0.2086 -0.978 0.978 0.2086 1834.6659 2674.4143)" class="st6" width="8.6" height="8.6"/>
				
					<rect x="2514.8" y="188.5" transform="matrix(0.2086 -0.978 0.978 0.2086 1805.1012 2616.2439)" class="st6" width="8.6" height="8.6"/>
			</g>
		</g>
	</g>
</g>
</svg>
